<svg width="300" height="60" viewBox="0 0 300 60" fill="none" xmlns="http://www.w3.org/2000/svg">
<path d="M283.979 24.107C283.835 25.439 283.511 26.771 282.971 27.959C282.683 28.571 282.359 29.147 281.927 29.687C281.603 30.083 281.243 30.443 280.847 30.803L283.943 33.071V38.507L276.815 42.827C276.455 42.179 275.879 41.639 275.195 41.387C274.835 41.243 274.475 41.135 274.079 41.171C273.719 41.171 273.323 41.279 273.035 41.495C272.819 41.639 272.639 41.855 272.531 42.107C272.459 42.359 272.459 42.647 272.531 42.899C272.603 43.115 272.783 43.295 272.999 43.403L272.639 44.375C271.775 44.015 271.055 43.331 270.695 42.467C270.299 41.603 270.299 40.631 270.587 39.731C270.983 38.435 271.955 37.391 272.927 36.419C273.215 36.131 273.503 35.843 273.791 35.555L271.091 33.395V28.355L278.507 24.035C278.903 24.611 279.407 25.079 280.019 25.367C280.379 25.511 280.775 25.619 281.171 25.619C281.603 25.619 281.999 25.475 282.323 25.259C282.683 24.971 282.899 24.575 282.935 24.107L282.971 24.143C282.971 24.143 282.971 24.143 282.971 24.107H283.979ZM277.283 33.827L276.023 34.943C275.195 35.663 274.403 36.383 273.647 37.103C273.287 37.463 272.927 37.823 272.603 38.183C273.215 37.715 273.971 37.427 274.763 37.355C275.555 37.319 276.347 37.463 277.067 37.823C278.039 38.291 278.831 39.119 279.299 40.127V35.447L277.283 33.827ZM277.211 32.603L279.875 30.299C280.307 29.939 280.739 29.543 281.135 29.075C281.243 28.931 281.351 28.787 281.459 28.643C281.063 28.823 280.631 28.931 280.199 29.003C279.443 29.111 278.651 29.003 277.967 28.679C276.959 28.247 276.131 27.383 275.735 26.375V31.055L277.211 32.603Z" fill="#121212"/>
<path d="M254.777 40.163L254.165 39.371L255.857 38.003V28.499L264.461 24.035L268.097 29.543V29.723L260.321 34.547V36.095L264.641 39.047L268.637 35.951L269.141 36.815L261.725 42.827L256.361 38.867L254.777 40.163ZM260.321 33.683L264.137 31.271L261.041 26.771L260.321 27.167V33.683Z" fill="#121212"/>
<path d="M243.206 39.803L239.246 43.007L235.682 39.911L237.194 38.507V29.651L234.71 27.383L233.126 28.319V38.507L234.674 39.911L231.218 43.007L227.078 39.731L228.482 38.507V28.967L227.078 27.419L225.71 28.283L225.206 27.563L230.21 24.143L232.838 27.095L237.554 24.143L241.154 27.203L246.086 24.143L249.83 27.347L251.018 26.411L251.666 27.167L249.866 28.643V37.679L251.558 39.371L253.106 38.219V39.551L247.778 43.007L244.214 39.911L245.726 38.507V29.651L243.242 27.383L241.334 28.535V38.147L243.206 39.803Z" fill="#121212"/>
<path d="M224.719 38.363L225.583 39.047L220.399 42.647L216.943 39.551L215.755 40.415L215.215 39.731L217.483 38.183V28.679L216.259 27.131L214.891 27.995L214.387 27.311L219.211 24.035L221.947 27.311V38.183L223.171 39.371L224.719 38.363ZM216.331 19.175L219.751 16.151L222.847 19.643L219.391 22.667L216.331 19.175Z" fill="#121212"/>
<path d="M194.187 23.495C193.251 23.099 192.459 22.307 192.063 21.335C191.667 20.363 191.631 19.247 191.991 18.275C192.279 17.483 192.783 16.763 193.431 16.223C194.079 15.683 194.871 15.287 195.699 15.071C196.599 14.855 197.535 14.819 198.471 14.927C199.407 15.071 200.307 15.323 201.207 15.611C202.539 16.043 203.835 16.547 205.203 16.835C206.247 17.087 207.291 17.411 208.371 17.447C208.731 17.447 209.127 17.411 209.451 17.267C209.595 17.159 209.739 17.051 209.847 16.907C209.955 16.727 210.027 16.583 210.063 16.367C210.063 16.187 210.027 15.971 209.955 15.827C209.847 15.647 209.703 15.467 209.559 15.359C209.235 15.107 208.875 14.999 208.479 14.891C208.083 14.819 207.687 14.747 207.327 14.711V14.027C207.759 13.991 208.227 13.991 208.659 14.027C209.487 14.135 210.351 14.351 211.071 14.747C211.827 15.143 212.475 15.755 212.871 16.511C213.303 17.303 213.411 18.275 213.195 19.175C212.943 20.075 212.367 20.831 211.575 21.371C210.927 21.803 210.135 22.091 209.307 22.163C209.019 22.199 208.695 22.235 208.407 22.235V26.555L210.783 28.967L208.407 31.379V36.851C208.659 36.671 208.875 36.491 209.127 36.311C210.459 35.195 211.503 33.755 212.151 32.135H212.835C212.907 33.791 212.511 35.447 211.755 36.923C210.891 38.543 209.595 39.911 208.011 40.847C206.427 41.783 204.627 42.287 202.791 42.359C199.443 42.467 196.059 41.063 193.791 38.579C191.523 36.095 190.443 32.567 191.055 29.291C191.451 27.239 192.459 25.331 193.935 23.855C195.411 22.415 197.319 21.443 199.371 21.083L199.731 21.623C198.147 22.667 196.887 24.143 196.095 25.871L204.015 22.487V33.431L197.679 36.095C198.183 36.599 198.759 37.031 199.371 37.355C200.883 38.219 202.683 38.543 204.411 38.327C205.455 38.219 206.463 37.895 207.399 37.427V31.343L205.023 28.967L207.399 26.591V22.163C207.219 22.163 207.039 22.127 206.895 22.091C205.275 21.875 203.691 21.407 202.107 21.047C200.523 20.651 198.903 20.183 197.283 19.859C196.635 19.715 195.951 19.643 195.303 19.787C194.943 19.859 194.655 20.003 194.367 20.219C194.115 20.399 193.899 20.687 193.755 21.011C193.647 21.371 193.611 21.767 193.755 22.163C193.899 22.523 194.187 22.811 194.547 22.991L194.187 23.495ZM195.627 27.095C195.051 28.931 195.015 30.983 195.627 32.819C195.951 33.719 196.419 34.583 196.995 35.339L199.371 34.331V25.511L195.627 27.095Z" fill="#121212"/>
<path d="M182.257 37.895L174.121 42.503L168.685 39.227L167.317 40.091L166.813 39.371L169.225 37.823V21.443C169.225 21.263 169.225 21.083 169.153 20.903C169.117 20.723 169.045 20.543 168.973 20.399C168.793 20.183 168.577 20.003 168.325 19.895C168.037 19.751 167.785 19.643 167.497 19.535V19.031L173.365 14.891H174.049V26.735L178.585 23.783L182.257 27.203V37.895ZM174.049 27.923V37.283L177.829 39.515V29.111L175.669 26.879L174.049 27.923Z" fill="#121212"/>
<path d="M149.223 38.507L150.339 37.571V29.147C150.339 28.895 150.339 28.643 150.303 28.391C150.231 28.139 150.159 27.887 150.015 27.671C149.871 27.455 149.655 27.311 149.403 27.203C149.187 27.095 148.935 27.059 148.683 27.131C148.575 27.131 148.467 27.167 148.359 27.203C148.035 27.311 147.783 27.491 147.531 27.671L147.171 27.167L151.815 24.179C152.139 24.323 152.499 24.467 152.787 24.683C153.255 25.043 153.651 25.439 153.975 25.907C154.227 26.303 154.407 26.699 154.515 27.167C154.623 27.599 154.659 28.031 154.659 28.499V37.139L156.891 39.299L158.619 38.039C158.619 37.823 158.619 37.607 158.619 37.391V36.275V28.895L156.747 27.239L160.131 24.107L162.507 26.195L163.767 25.331L164.307 26.015L162.759 27.203V35.807V37.319C162.759 37.895 162.795 38.471 163.047 38.975C163.227 39.299 163.443 39.587 163.731 39.767L165.063 38.687L165.747 39.587L161.427 42.539C160.851 42.467 160.275 42.215 159.843 41.819C159.267 41.279 158.907 40.523 158.763 39.767C158.727 39.515 158.691 39.299 158.655 39.047L154.119 42.611L149.223 38.507Z" fill="#121212"/>
<path d="M135.784 38.183L136.936 39.335L138.052 38.579L138.7 39.371L134.236 42.503L130.528 39.335L129.16 40.199L128.548 39.371L130.96 37.823V21.443C130.96 21.263 130.96 21.083 130.888 20.903C130.852 20.723 130.78 20.543 130.708 20.399C130.528 20.183 130.312 20.003 130.06 19.895C129.772 19.751 129.52 19.643 129.232 19.535V19.031L135.1 14.891H135.784V28.247L140.248 24.035L144.064 27.203L145.504 26.051L146.116 26.843L144.568 28.103V37.499C144.568 38.471 144.568 39.443 144.388 40.415C144.244 41.387 143.884 42.323 143.38 43.151C142.624 44.339 141.544 45.275 140.248 45.851C138.916 46.463 137.404 46.679 135.964 46.463V45.599C136.72 45.419 137.476 45.023 138.052 44.483C138.7 43.835 139.132 43.043 139.42 42.179C139.888 40.775 139.924 39.299 139.924 37.823V29.219L137.764 27.419L135.784 29.291V38.183Z" fill="#121212"/>
<path d="M110.957 38.507L112.073 37.571V29.147C112.073 28.895 112.073 28.643 112.037 28.391C111.965 28.139 111.893 27.887 111.749 27.671C111.605 27.455 111.389 27.311 111.137 27.203C110.921 27.095 110.669 27.059 110.417 27.131C110.309 27.131 110.201 27.167 110.093 27.203C109.769 27.311 109.517 27.491 109.265 27.671L108.905 27.167L113.549 24.179C113.873 24.323 114.233 24.467 114.521 24.683C114.989 25.043 115.385 25.439 115.709 25.907C115.961 26.303 116.141 26.699 116.249 27.167C116.357 27.599 116.393 28.031 116.393 28.499V37.139L118.625 39.299L120.353 38.039C120.353 37.823 120.353 37.607 120.353 37.391V36.275V28.895L118.481 27.239L121.865 24.107L124.241 26.195L125.501 25.331L126.041 26.015L124.493 27.203V35.807V37.319C124.493 37.895 124.529 38.471 124.781 38.975C124.961 39.299 125.177 39.587 125.465 39.767L126.797 38.687L127.481 39.587L123.161 42.539C122.585 42.467 122.009 42.215 121.577 41.819C121.001 41.279 120.641 40.523 120.497 39.767C120.461 39.515 120.425 39.299 120.389 39.047L115.853 42.611L110.957 38.507Z" fill="#121212"/>
<path d="M82.5205 28.247C82.6285 27.707 82.8445 27.131 83.1685 26.663C83.5285 26.231 83.9965 25.835 84.5365 25.619C85.1485 25.331 85.8685 25.259 86.5525 25.259C86.5885 24.395 86.6605 23.531 86.9485 22.739C87.1645 22.127 87.4525 21.587 87.8485 21.119C88.2445 20.651 88.7125 20.219 89.1805 19.823L90.6565 18.599C90.3325 18.743 90.0085 18.887 89.6485 18.959C88.8565 19.175 88.0645 19.103 87.2725 18.923C86.4805 18.743 85.7245 18.455 84.9325 18.383C84.4285 18.347 83.9245 18.419 83.5285 18.671C83.0605 18.923 82.7005 19.391 82.5925 19.895H81.7645C82.5205 18.527 83.3845 17.159 84.5365 16.079C84.9685 15.683 85.4725 15.323 86.0125 15.071C86.5525 14.819 87.1645 14.711 87.7765 14.711C88.4245 14.747 89.0725 14.963 89.6845 15.143C90.2965 15.359 90.9445 15.575 91.5925 15.683C92.0965 15.755 92.6365 15.719 93.1405 15.611C93.8245 15.503 94.4365 15.215 95.0125 14.819L94.9405 15.359C94.8685 15.431 94.8325 15.467 94.7605 15.503C94.3645 15.827 93.9685 16.187 93.6445 16.583C92.8525 17.483 92.2045 18.491 91.7725 19.607C91.3045 20.831 91.1965 22.127 91.1965 23.423V27.419V30.227C91.1965 30.767 91.1965 31.307 91.0885 31.847C91.0165 32.351 90.8725 32.891 90.6205 33.359C90.1165 34.331 89.3245 35.087 88.4245 35.699C87.5245 36.347 86.5165 36.851 85.5085 37.211H84.3205C84.7885 36.995 85.2205 36.671 85.5445 36.239C85.9765 35.699 86.2645 35.051 86.4085 34.331C86.5525 33.647 86.5525 32.927 86.5525 32.243C86.5525 31.235 86.5525 30.227 86.5525 29.255C86.2285 29.255 85.9045 29.255 85.5805 29.255C85.4005 29.255 85.1845 29.255 85.0045 29.255C84.8245 29.291 84.6085 29.363 84.4285 29.435C84.1045 29.615 83.8165 29.939 83.6725 30.299C83.5285 30.623 83.4925 30.983 83.5645 31.307H82.8805C82.4485 30.371 82.3045 29.291 82.5205 28.247ZM97.6405 19.355L96.2725 20.903L95.7685 20.363L100.197 15.071C100.737 15.719 101.493 16.187 102.285 16.403C103.149 16.655 104.085 16.619 104.877 16.187C105.489 15.827 105.993 15.215 106.173 14.531H106.677C106.857 15.575 106.713 16.655 106.209 17.591C105.741 18.527 104.949 19.319 104.049 19.787C103.401 20.111 102.753 20.327 102.069 20.399L97.3885 25.799C98.2885 26.087 99.1525 26.519 99.9445 27.059C100.809 27.707 101.565 28.499 102.141 29.363C102.717 30.263 103.148 31.271 103.437 32.279C103.688 33.215 103.869 34.115 104.085 35.015C104.337 35.951 104.625 36.851 105.129 37.643C105.489 38.219 105.921 38.723 106.425 39.155L108.909 37.247V38.363L103.401 42.719C102.645 42.359 101.961 41.819 101.421 41.135C100.845 40.487 100.449 39.659 100.16 38.831L95.1565 42.755C93.8605 41.783 92.3845 41.027 90.8005 40.667C89.8285 40.451 88.8205 40.379 87.8485 40.523C86.8765 40.631 85.9045 40.955 85.0765 41.459C84.3205 41.927 83.6725 42.539 83.2045 43.295H82.1245C82.4845 42.503 82.9885 41.783 83.5285 41.063C84.7885 39.515 86.4805 38.255 88.3165 37.499C89.0365 37.031 89.7205 36.563 90.3685 36.023C91.0885 35.411 91.7365 34.763 92.0965 33.971C92.3125 33.575 92.4205 33.143 92.4925 32.711C92.6005 32.279 92.6005 31.847 92.6005 31.343L92.7805 22.811C92.8165 21.731 92.8885 20.579 93.2485 19.499C93.6085 18.383 94.2205 17.411 94.9405 16.547C95.6605 15.719 96.5245 14.963 97.4245 14.315L97.7125 14.711L98.0005 15.143C97.1725 15.719 96.3805 16.439 95.6965 17.231C95.0485 17.987 94.5085 18.851 94.2205 19.823C93.8965 20.723 93.8245 21.767 93.7885 22.811L93.6805 28.967L101.025 20.435C99.8365 20.399 98.6485 20.003 97.6405 19.355ZM91.0165 36.779C91.2325 36.743 91.4485 36.743 91.7005 36.707C94.2565 36.563 96.9205 37.391 98.9005 39.011L99.9445 38.219C99.7285 37.499 99.5845 36.779 99.4405 36.059C99.1885 34.979 98.9005 33.899 98.3965 32.927C97.9285 31.919 97.2445 30.983 96.3445 30.335C95.6965 29.903 94.9765 29.579 94.2565 29.435L93.7885 29.939H93.6445L93.6085 31.379C93.6085 31.847 93.6085 32.387 93.5005 32.891C93.4285 33.431 93.2485 33.935 92.9965 34.403C92.5285 35.375 91.8085 36.131 91.0165 36.779Z" fill="#121212"/>
<path d="M58.736 40.163L58.124 39.371L59.816 38.003V28.499L68.42 24.035L72.056 29.543V29.723L64.28 34.547V36.095L68.6 39.047L72.596 35.951L73.1 36.815L65.684 42.827L60.32 38.867L58.736 40.163ZM64.28 33.683L68.096 31.271L65 26.771L64.28 27.167V33.683Z" fill="#121212"/>
<path d="M46.7371 38.183L47.8891 39.335L49.0051 38.579L49.6531 39.371L45.1891 42.503L41.4811 39.335L40.1131 40.199L39.5011 39.371L41.9131 37.823V21.443C41.9131 21.263 41.9131 21.083 41.8411 20.903C41.8051 20.723 41.7331 20.543 41.6611 20.399C41.4811 20.183 41.2651 20.003 41.0131 19.895C40.7251 19.751 40.4731 19.643 40.1851 19.535V19.031L46.0531 14.891H46.7371V28.247L51.2011 24.035L55.0171 27.203L56.4571 26.051L57.0691 26.843L55.5211 28.103V37.499C55.5211 38.471 55.5211 39.443 55.3411 40.415C55.1971 41.387 54.8371 42.323 54.3331 43.151C53.5771 44.339 52.4971 45.275 51.2011 45.851C49.8691 46.463 48.3571 46.679 46.9171 46.463V45.599C47.6731 45.419 48.4291 45.023 49.0051 44.483C49.6531 43.835 50.0851 43.043 50.3731 42.179C50.8411 40.775 50.8771 39.299 50.8771 37.823V29.219L48.7171 27.419L46.7371 29.291V38.183Z" fill="#121212"/>
<path d="M19.3011 23.495C18.3651 23.099 17.5731 22.307 17.1771 21.335C16.7811 20.363 16.7451 19.247 17.1051 18.275C17.3931 17.483 17.8971 16.763 18.5451 16.223C19.1931 15.683 19.9851 15.287 20.8131 15.071C21.7131 14.855 22.6491 14.819 23.5851 14.927C24.5211 15.071 25.4211 15.323 26.3211 15.611C27.6531 16.043 28.9491 16.547 30.3171 16.835C31.3611 17.087 32.4051 17.411 33.4851 17.447C33.8451 17.447 34.2411 17.411 34.5651 17.267C34.7091 17.159 34.8531 17.051 34.9611 16.907C35.0691 16.727 35.1411 16.583 35.1771 16.367C35.1771 16.187 35.1411 15.971 35.0691 15.827C34.9611 15.647 34.8171 15.467 34.6731 15.359C34.3491 15.107 33.9891 14.999 33.5931 14.891C33.1971 14.819 32.8011 14.747 32.4411 14.711V14.027C32.8731 13.991 33.3411 13.991 33.7731 14.027C34.6011 14.135 35.4651 14.351 36.1851 14.747C36.9411 15.143 37.5891 15.755 37.9851 16.511C38.4171 17.303 38.5251 18.275 38.3091 19.175C38.0571 20.075 37.4811 20.831 36.6891 21.371C36.0411 21.803 35.2491 22.091 34.4211 22.163C34.1331 22.199 33.8091 22.235 33.5211 22.235V26.555L35.8971 28.967L33.5211 31.379V36.851C33.7731 36.671 33.9891 36.491 34.2411 36.311C35.5731 35.195 36.6171 33.755 37.2651 32.135H37.9491C38.0211 33.791 37.6251 35.447 36.8691 36.923C36.0051 38.543 34.7091 39.911 33.1251 40.847C31.5411 41.783 29.7411 42.287 27.9051 42.359C24.5571 42.467 21.1731 41.063 18.9051 38.579C16.6371 36.095 15.5571 32.567 16.1691 29.291C16.5651 27.239 17.5731 25.331 19.0491 23.855C20.5251 22.415 22.4331 21.443 24.4851 21.083L24.8451 21.623C23.2611 22.667 22.0011 24.143 21.2091 25.871L29.1291 22.487V33.431L22.7931 36.095C23.2971 36.599 23.8731 37.031 24.4851 37.355C25.9971 38.219 27.7971 38.543 29.5251 38.327C30.5691 38.219 31.5771 37.895 32.5131 37.427V31.343L30.1371 28.967L32.5131 26.591V22.163C32.3331 22.163 32.1531 22.127 32.0091 22.091C30.3891 21.875 28.8051 21.407 27.2211 21.047C25.6371 20.651 24.0171 20.183 22.3971 19.859C21.7491 19.715 21.0651 19.643 20.4171 19.787C20.0571 19.859 19.7691 20.003 19.4811 20.219C19.2291 20.399 19.0131 20.687 18.8691 21.011C18.7611 21.371 18.7251 21.767 18.8691 22.163C19.0131 22.523 19.3011 22.811 19.6611 22.991L19.3011 23.495ZM20.7411 27.095C20.1651 28.931 20.1291 30.983 20.7411 32.819C21.0651 33.719 21.5331 34.583 22.1091 35.339L24.4851 34.331V25.511L20.7411 27.095Z" fill="#121212"/>
</svg>
