<svg width="17" height="16" viewBox="0 0 17 16" fill="none" xmlns="http://www.w3.org/2000/svg">
<path d="M4.81336 7.19333C5.77336 9.08 7.32002 10.6267 9.20669 11.5867L10.6734 10.12C10.86 9.93333 11.12 9.88 11.3534 9.95333C12.1 10.2 12.9 10.3333 13.7334 10.3333C13.9102 10.3333 14.0797 10.4036 14.2048 10.5286C14.3298 10.6536 14.4 10.8232 14.4 11V13.3333C14.4 13.5101 14.3298 13.6797 14.2048 13.8047C14.0797 13.9298 13.9102 14 13.7334 14C10.7276 14 7.84489 12.806 5.71948 10.6805C3.59407 8.55513 2.40002 5.67245 2.40002 2.66667C2.40002 2.48986 2.47026 2.32029 2.59529 2.19526C2.72031 2.07024 2.88988 2 3.06669 2H5.40002C5.57684 2 5.7464 2.07024 5.87143 2.19526C5.99645 2.32029 6.06669 2.48986 6.06669 2.66667C6.06669 3.5 6.20002 4.3 6.44669 5.04667C6.52002 5.28 6.46669 5.54 6.28002 5.72667L4.81336 7.19333Z" fill="#201F2B"/>
</svg>
