<svg width="17" height="16" viewBox="0 0 17 16" fill="none" xmlns="http://www.w3.org/2000/svg">
<path d="M4.81324 7.19333C5.77324 9.08 7.3199 10.6267 9.20657 11.5867L10.6732 10.12C10.8599 9.93333 11.1199 9.88 11.3532 9.95333C12.0999 10.2 12.8999 10.3333 13.7332 10.3333C13.91 10.3333 14.0796 10.4036 14.2046 10.5286C14.3297 10.6536 14.3999 10.8232 14.3999 11V13.3333C14.3999 13.5101 14.3297 13.6797 14.2046 13.8047C14.0796 13.9298 13.91 14 13.7332 14C10.7274 14 7.84477 12.806 5.71936 10.6805C3.59395 8.55513 2.3999 5.67245 2.3999 2.66667C2.3999 2.48986 2.47014 2.32029 2.59516 2.19526C2.72019 2.07024 2.88976 2 3.06657 2H5.3999C5.57671 2 5.74628 2.07024 5.87131 2.19526C5.99633 2.32029 6.06657 2.48986 6.06657 2.66667C6.06657 3.5 6.1999 4.3 6.44657 5.04667C6.5199 5.28 6.46657 5.54 6.2799 5.72667L4.81324 7.19333Z" fill="#201F2B"/>
</svg>
