<svg width="17" height="16" viewBox="0 0 17 16" fill="none" xmlns="http://www.w3.org/2000/svg">
<path d="M8.80001 1.33337C11.0067 1.33337 12.8 3.10671 12.8 5.30004C12.8 8.27337 8.80001 12.6667 8.80001 12.6667C8.80001 12.6667 4.80001 8.27337 4.80001 5.30004C4.80001 3.10671 6.59334 1.33337 8.80001 1.33337ZM8.80001 4.00004C8.44639 4.00004 8.10725 4.14052 7.8572 4.39056C7.60715 4.64061 7.46667 4.97975 7.46667 5.33337C7.46667 5.687 7.60715 6.02613 7.8572 6.27618C8.10725 6.52623 8.44639 6.66671 8.80001 6.66671C9.15363 6.66671 9.49277 6.52623 9.74282 6.27618C9.99287 6.02613 10.1333 5.687 10.1333 5.33337C10.1333 4.97975 9.99287 4.64061 9.74282 4.39056C9.49277 4.14052 9.15363 4.00004 8.80001 4.00004ZM14.1333 12.6667C14.1333 14.14 11.7467 15.3334 8.80001 15.3334C5.85334 15.3334 3.46667 14.14 3.46667 12.6667C3.46667 11.8067 4.28001 11.04 5.54001 10.5534L5.96667 11.16C5.24667 11.46 4.80001 11.8734 4.80001 12.3334C4.80001 13.2534 6.59334 14 8.80001 14C11.0067 14 12.8 13.2534 12.8 12.3334C12.8 11.8734 12.3533 11.46 11.6333 11.16L12.06 10.5534C13.32 11.04 14.1333 11.8067 14.1333 12.6667Z" fill="#201F2B"/>
</svg>
