<svg width="17" height="16" viewBox="0 0 17 16" fill="none" xmlns="http://www.w3.org/2000/svg">
<path d="M11.1567 9.33331C11.21 8.89331 11.25 8.45331 11.25 7.99998C11.25 7.54665 11.21 7.10665 11.1567 6.66665H13.41C13.5167 7.09331 13.5833 7.53998 13.5833 7.99998C13.5833 8.45998 13.5167 8.90665 13.41 9.33331M9.97668 13.04C10.3767 12.3 10.6833 11.5 10.8967 10.6666H12.8633C12.2233 11.7666 11.2033 12.62 9.97668 13.04ZM9.81001 9.33331H6.69001C6.62334 8.89331 6.58334 8.45331 6.58334 7.99998C6.58334 7.54665 6.62334 7.09998 6.69001 6.66665H9.81001C9.87001 7.09998 9.91668 7.54665 9.91668 7.99998C9.91668 8.45331 9.87001 8.89331 9.81001 9.33331ZM8.25001 13.3066C7.69668 12.5066 7.25001 11.62 6.97668 10.6666H9.52334C9.25001 11.62 8.80334 12.5066 8.25001 13.3066ZM5.58334 5.33331H3.63668C4.27001 4.22665 5.29668 3.37331 6.51668 2.95998C6.11668 3.69998 5.81668 4.49998 5.58334 5.33331ZM3.63668 10.6666H5.58334C5.81668 11.5 6.11668 12.3 6.51668 13.04C5.29668 12.62 4.27001 11.7666 3.63668 10.6666ZM3.09001 9.33331C2.98334 8.90665 2.91668 8.45998 2.91668 7.99998C2.91668 7.53998 2.98334 7.09331 3.09001 6.66665H5.34334C5.29001 7.10665 5.25001 7.54665 5.25001 7.99998C5.25001 8.45331 5.29001 8.89331 5.34334 9.33331M8.25001 2.68665C8.80334 3.48665 9.25001 4.37998 9.52334 5.33331H6.97668C7.25001 4.37998 7.69668 3.48665 8.25001 2.68665ZM12.8633 5.33331H10.8967C10.6833 4.49998 10.3767 3.69998 9.97668 2.95998C11.2033 3.37998 12.2233 4.22665 12.8633 5.33331ZM8.25001 1.33331C4.56334 1.33331 1.58334 4.33331 1.58334 7.99998C1.58334 9.76809 2.28572 11.4638 3.53596 12.714C4.15502 13.3331 4.88995 13.8241 5.69879 14.1592C6.50762 14.4942 7.37453 14.6666 8.25001 14.6666C10.0181 14.6666 11.7138 13.9643 12.9641 12.714C14.2143 11.4638 14.9167 9.76809 14.9167 7.99998C14.9167 7.1245 14.7442 6.25759 14.4092 5.44876C14.0742 4.63992 13.5831 3.90499 12.9641 3.28593C12.345 2.66688 11.6101 2.17581 10.8012 1.84078C9.9924 1.50575 9.12549 1.33331 8.25001 1.33331Z" fill="#201F2B"/>
</svg>
