<svg width="17" height="16" viewBox="0 0 17 16" fill="none" xmlns="http://www.w3.org/2000/svg">
<path d="M8.24996 1.33331C10.4566 1.33331 12.25 3.10665 12.25 5.29998C12.25 8.27331 8.24996 12.6666 8.24996 12.6666C8.24996 12.6666 4.24996 8.27331 4.24996 5.29998C4.24996 3.10665 6.04329 1.33331 8.24996 1.33331ZM8.24996 3.99998C7.89634 3.99998 7.5572 4.14046 7.30715 4.3905C7.0571 4.64055 6.91663 4.97969 6.91663 5.33331C6.91663 5.68693 7.0571 6.02607 7.30715 6.27612C7.5572 6.52617 7.89634 6.66665 8.24996 6.66665C8.60358 6.66665 8.94272 6.52617 9.19277 6.27612C9.44282 6.02607 9.58329 5.68693 9.58329 5.33331C9.58329 4.97969 9.44282 4.64055 9.19277 4.3905C8.94272 4.14046 8.60358 3.99998 8.24996 3.99998ZM13.5833 12.6666C13.5833 14.14 11.1966 15.3333 8.24996 15.3333C5.30329 15.3333 2.91663 14.14 2.91663 12.6666C2.91663 11.8066 3.72996 11.04 4.98996 10.5533L5.41663 11.16C4.69663 11.46 4.24996 11.8733 4.24996 12.3333C4.24996 13.2533 6.04329 14 8.24996 14C10.4566 14 12.25 13.2533 12.25 12.3333C12.25 11.8733 11.8033 11.46 11.0833 11.16L11.51 10.5533C12.77 11.04 13.5833 11.8066 13.5833 12.6666Z" fill="#201F2B"/>
</svg>
