<svg width="17" height="16" viewBox="0 0 17 16" fill="none" xmlns="http://www.w3.org/2000/svg">
<path d="M11.1566 9.33331C11.21 8.89331 11.25 8.45331 11.25 7.99998C11.25 7.54665 11.21 7.10665 11.1566 6.66665H13.41C13.5166 7.09331 13.5833 7.53998 13.5833 7.99998C13.5833 8.45998 13.5166 8.90665 13.41 9.33331M9.97665 13.04C10.3766 12.3 10.6833 11.5 10.8966 10.6666H12.8633C12.2233 11.7666 11.2033 12.62 9.97665 13.04ZM9.80998 9.33331H6.68998C6.62331 8.89331 6.58331 8.45331 6.58331 7.99998C6.58331 7.54665 6.62331 7.09998 6.68998 6.66665H9.80998C9.86998 7.09998 9.91665 7.54665 9.91665 7.99998C9.91665 8.45331 9.86998 8.89331 9.80998 9.33331ZM8.24998 13.3066C7.69665 12.5066 7.24998 11.62 6.97665 10.6666H9.52331C9.24998 11.62 8.80331 12.5066 8.24998 13.3066ZM5.58331 5.33331H3.63665C4.26998 4.22665 5.29665 3.37331 6.51665 2.95998C6.11665 3.69998 5.81665 4.49998 5.58331 5.33331ZM3.63665 10.6666H5.58331C5.81665 11.5 6.11665 12.3 6.51665 13.04C5.29665 12.62 4.26998 11.7666 3.63665 10.6666ZM3.08998 9.33331C2.98331 8.90665 2.91665 8.45998 2.91665 7.99998C2.91665 7.53998 2.98331 7.09331 3.08998 6.66665H5.34331C5.28998 7.10665 5.24998 7.54665 5.24998 7.99998C5.24998 8.45331 5.28998 8.89331 5.34331 9.33331M8.24998 2.68665C8.80331 3.48665 9.24998 4.37998 9.52331 5.33331H6.97665C7.24998 4.37998 7.69665 3.48665 8.24998 2.68665ZM12.8633 5.33331H10.8966C10.6833 4.49998 10.3766 3.69998 9.97665 2.95998C11.2033 3.37998 12.2233 4.22665 12.8633 5.33331ZM8.24998 1.33331C4.56331 1.33331 1.58331 4.33331 1.58331 7.99998C1.58331 9.76809 2.28569 11.4638 3.53593 12.714C4.15499 13.3331 4.88992 13.8241 5.69876 14.1592C6.50759 14.4942 7.3745 14.6666 8.24998 14.6666C10.0181 14.6666 11.7138 13.9643 12.964 12.714C14.2143 11.4638 14.9166 9.76809 14.9166 7.99998C14.9166 7.1245 14.7442 6.25759 14.4092 5.44876C14.0741 4.63992 13.5831 3.90499 12.964 3.28593C12.345 2.66688 11.61 2.17581 10.8012 1.84078C9.99236 1.50575 9.12546 1.33331 8.24998 1.33331Z" fill="#201F2B"/>
</svg>
