<svg width="17" height="16" viewBox="0 0 17 16" fill="none" xmlns="http://www.w3.org/2000/svg">
<path d="M8.25001 1.33331C10.4567 1.33331 12.25 3.10665 12.25 5.29998C12.25 8.27331 8.25001 12.6666 8.25001 12.6666C8.25001 12.6666 4.25001 8.27331 4.25001 5.29998C4.25001 3.10665 6.04334 1.33331 8.25001 1.33331ZM8.25001 3.99998C7.89638 3.99998 7.55724 4.14046 7.3072 4.3905C7.05715 4.64055 6.91667 4.97969 6.91667 5.33331C6.91667 5.68693 7.05715 6.02607 7.3072 6.27612C7.55724 6.52617 7.89638 6.66665 8.25001 6.66665C8.60363 6.66665 8.94277 6.52617 9.19281 6.27612C9.44286 6.02607 9.58334 5.68693 9.58334 5.33331C9.58334 4.97969 9.44286 4.64055 9.19281 4.3905C8.94277 4.14046 8.60363 3.99998 8.25001 3.99998ZM13.5833 12.6666C13.5833 14.14 11.1967 15.3333 8.25001 15.3333C5.30334 15.3333 2.91667 14.14 2.91667 12.6666C2.91667 11.8066 3.73001 11.04 4.99001 10.5533L5.41667 11.16C4.69667 11.46 4.25001 11.8733 4.25001 12.3333C4.25001 13.2533 6.04334 14 8.25001 14C10.4567 14 12.25 13.2533 12.25 12.3333C12.25 11.8733 11.8033 11.46 11.0833 11.16L11.51 10.5533C12.77 11.04 13.5833 11.8066 13.5833 12.6666Z" fill="#201F2B"/>
</svg>
