<svg width="17" height="16" viewBox="0 0 17 16" fill="none" xmlns="http://www.w3.org/2000/svg">
<path d="M4.66333 7.19333C5.62333 9.08 7.17 10.6267 9.05667 11.5867L10.5233 10.12C10.71 9.93333 10.97 9.88 11.2033 9.95333C11.95 10.2 12.75 10.3333 13.5833 10.3333C13.7601 10.3333 13.9297 10.4036 14.0547 10.5286C14.1798 10.6536 14.25 10.8232 14.25 11V13.3333C14.25 13.5101 14.1798 13.6797 14.0547 13.8047C13.9297 13.9298 13.7601 14 13.5833 14C10.5775 14 7.69487 12.806 5.56946 10.6805C3.44404 8.55513 2.25 5.67245 2.25 2.66667C2.25 2.48986 2.32024 2.32029 2.44526 2.19526C2.57029 2.07024 2.73986 2 2.91667 2H5.25C5.42681 2 5.59638 2.07024 5.7214 2.19526C5.84643 2.32029 5.91667 2.48986 5.91667 2.66667C5.91667 3.5 6.05 4.3 6.29667 5.04667C6.37 5.28 6.31667 5.54 6.13 5.72667L4.66333 7.19333Z" fill="#201F2B"/>
</svg>
