<svg width="17" height="16" viewBox="0 0 17 16" fill="none" xmlns="http://www.w3.org/2000/svg">
<path d="M8.80004 1.33337C11.0067 1.33337 12.8 3.10671 12.8 5.30004C12.8 8.27337 8.80004 12.6667 8.80004 12.6667C8.80004 12.6667 4.80004 8.27337 4.80004 5.30004C4.80004 3.10671 6.59337 1.33337 8.80004 1.33337ZM8.80004 4.00004C8.44642 4.00004 8.10728 4.14052 7.85723 4.39056C7.60718 4.64061 7.46671 4.97975 7.46671 5.33337C7.46671 5.687 7.60718 6.02613 7.85723 6.27618C8.10728 6.52623 8.44642 6.66671 8.80004 6.66671C9.15366 6.66671 9.4928 6.52623 9.74285 6.27618C9.9929 6.02613 10.1334 5.687 10.1334 5.33337C10.1334 4.97975 9.9929 4.64061 9.74285 4.39056C9.4928 4.14052 9.15366 4.00004 8.80004 4.00004ZM14.1334 12.6667C14.1334 14.14 11.7467 15.3334 8.80004 15.3334C5.85337 15.3334 3.46671 14.14 3.46671 12.6667C3.46671 11.8067 4.28004 11.04 5.54004 10.5534L5.96671 11.16C5.24671 11.46 4.80004 11.8734 4.80004 12.3334C4.80004 13.2534 6.59337 14 8.80004 14C11.0067 14 12.8 13.2534 12.8 12.3334C12.8 11.8734 12.3534 11.46 11.6334 11.16L12.06 10.5534C13.32 11.04 14.1334 11.8067 14.1334 12.6667Z" fill="#201F2B"/>
</svg>
