<svg width="16" height="16" viewBox="0 0 16 16" fill="none" xmlns="http://www.w3.org/2000/svg">
<path d="M10.9067 9.33337C10.96 8.89337 11 8.45337 11 8.00004C11 7.54671 10.96 7.10671 10.9067 6.66671H13.16C13.2667 7.09337 13.3333 7.54004 13.3333 8.00004C13.3333 8.46004 13.2667 8.90671 13.16 9.33337M9.72667 13.04C10.1267 12.3 10.4333 11.5 10.6467 10.6667H12.6133C11.9733 11.7667 10.9533 12.62 9.72667 13.04ZM9.56 9.33337H6.44C6.37334 8.89337 6.33334 8.45337 6.33334 8.00004C6.33334 7.54671 6.37334 7.10004 6.44 6.66671H9.56C9.62 7.10004 9.66667 7.54671 9.66667 8.00004C9.66667 8.45337 9.62 8.89337 9.56 9.33337ZM8 13.3067C7.44667 12.5067 7 11.62 6.72667 10.6667H9.27334C9 11.62 8.55334 12.5067 8 13.3067ZM5.33334 5.33337H3.38667C4.02 4.22671 5.04667 3.37337 6.26667 2.96004C5.86667 3.70004 5.56667 4.50004 5.33334 5.33337ZM3.38667 10.6667H5.33334C5.56667 11.5 5.86667 12.3 6.26667 13.04C5.04667 12.62 4.02 11.7667 3.38667 10.6667ZM2.84 9.33337C2.73334 8.90671 2.66667 8.46004 2.66667 8.00004C2.66667 7.54004 2.73334 7.09337 2.84 6.66671H5.09334C5.04 7.10671 5 7.54671 5 8.00004C5 8.45337 5.04 8.89337 5.09334 9.33337M8 2.68671C8.55334 3.48671 9 4.38004 9.27334 5.33337H6.72667C7 4.38004 7.44667 3.48671 8 2.68671ZM12.6133 5.33337H10.6467C10.4333 4.50004 10.1267 3.70004 9.72667 2.96004C10.9533 3.38004 11.9733 4.22671 12.6133 5.33337ZM8 1.33337C4.31334 1.33337 1.33334 4.33337 1.33334 8.00004C1.33334 9.76815 2.03571 11.4638 3.28596 12.7141C3.90501 13.3331 4.63994 13.8242 5.44878 14.1592C6.25762 14.4943 7.12452 14.6667 8 14.6667C9.76811 14.6667 11.4638 13.9643 12.714 12.7141C13.9643 11.4638 14.6667 9.76815 14.6667 8.00004C14.6667 7.12456 14.4942 6.25765 14.1592 5.44882C13.8242 4.63998 13.3331 3.90505 12.714 3.286C12.095 2.66694 11.3601 2.17588 10.5512 1.84084C9.74239 1.50581 8.87548 1.33337 8 1.33337Z" fill="#201F2B"/>
</svg>
