<svg width="17" height="16" viewBox="0 0 17 16" fill="none" xmlns="http://www.w3.org/2000/svg">
<path d="M8.80007 1.33337C11.0067 1.33337 12.8001 3.10671 12.8001 5.30004C12.8001 8.27337 8.80007 12.6667 8.80007 12.6667C8.80007 12.6667 4.80007 8.27337 4.80007 5.30004C4.80007 3.10671 6.5934 1.33337 8.80007 1.33337ZM8.80007 4.00004C8.44645 4.00004 8.10731 4.14052 7.85726 4.39056C7.60721 4.64061 7.46674 4.97975 7.46674 5.33337C7.46674 5.687 7.60721 6.02613 7.85726 6.27618C8.10731 6.52623 8.44645 6.66671 8.80007 6.66671C9.15369 6.66671 9.49283 6.52623 9.74288 6.27618C9.99293 6.02613 10.1334 5.687 10.1334 5.33337C10.1334 4.97975 9.99293 4.64061 9.74288 4.39056C9.49283 4.14052 9.15369 4.00004 8.80007 4.00004ZM14.1334 12.6667C14.1334 14.14 11.7467 15.3334 8.80007 15.3334C5.8534 15.3334 3.46674 14.14 3.46674 12.6667C3.46674 11.8067 4.28007 11.04 5.54007 10.5534L5.96674 11.16C5.24674 11.46 4.80007 11.8734 4.80007 12.3334C4.80007 13.2534 6.5934 14 8.80007 14C11.0067 14 12.8001 13.2534 12.8001 12.3334C12.8001 11.8734 12.3534 11.46 11.6334 11.16L12.0601 10.5534C13.3201 11.04 14.1334 11.8067 14.1334 12.6667Z" fill="#201F2B"/>
</svg>
