<svg width="16" height="16" viewBox="0 0 16 16" fill="none" xmlns="http://www.w3.org/2000/svg">
<path d="M10.9066 9.33337C10.96 8.89337 11 8.45337 11 8.00004C11 7.54671 10.96 7.10671 10.9066 6.66671H13.16C13.2666 7.09337 13.3333 7.54004 13.3333 8.00004C13.3333 8.46004 13.2666 8.90671 13.16 9.33337M9.72665 13.04C10.1266 12.3 10.4333 11.5 10.6466 10.6667H12.6133C11.9733 11.7667 10.9533 12.62 9.72665 13.04ZM9.55998 9.33337H6.43998C6.37331 8.89337 6.33331 8.45337 6.33331 8.00004C6.33331 7.54671 6.37331 7.10004 6.43998 6.66671H9.55998C9.61998 7.10004 9.66665 7.54671 9.66665 8.00004C9.66665 8.45337 9.61998 8.89337 9.55998 9.33337ZM7.99998 13.3067C7.44665 12.5067 6.99998 11.62 6.72665 10.6667H9.27331C8.99998 11.62 8.55331 12.5067 7.99998 13.3067ZM5.33331 5.33337H3.38665C4.01998 4.22671 5.04665 3.37337 6.26665 2.96004C5.86665 3.70004 5.56665 4.50004 5.33331 5.33337ZM3.38665 10.6667H5.33331C5.56665 11.5 5.86665 12.3 6.26665 13.04C5.04665 12.62 4.01998 11.7667 3.38665 10.6667ZM2.83998 9.33337C2.73331 8.90671 2.66665 8.46004 2.66665 8.00004C2.66665 7.54004 2.73331 7.09337 2.83998 6.66671H5.09331C5.03998 7.10671 4.99998 7.54671 4.99998 8.00004C4.99998 8.45337 5.03998 8.89337 5.09331 9.33337M7.99998 2.68671C8.55331 3.48671 8.99998 4.38004 9.27331 5.33337H6.72665C6.99998 4.38004 7.44665 3.48671 7.99998 2.68671ZM12.6133 5.33337H10.6466C10.4333 4.50004 10.1266 3.70004 9.72665 2.96004C10.9533 3.38004 11.9733 4.22671 12.6133 5.33337ZM7.99998 1.33337C4.31331 1.33337 1.33331 4.33337 1.33331 8.00004C1.33331 9.76815 2.03569 11.4638 3.28593 12.7141C3.90499 13.3331 4.63992 13.8242 5.44876 14.1592C6.25759 14.4943 7.1245 14.6667 7.99998 14.6667C9.76809 14.6667 11.4638 13.9643 12.714 12.7141C13.9643 11.4638 14.6666 9.76815 14.6666 8.00004C14.6666 7.12456 14.4942 6.25765 14.1592 5.44882C13.8241 4.63998 13.3331 3.90505 12.714 3.286C12.095 2.66694 11.36 2.17588 10.5512 1.84084C9.74236 1.50581 8.87546 1.33337 7.99998 1.33337Z" fill="#201F2B"/>
</svg>
