<svg width="17" height="16" viewBox="0 0 17 16" fill="none" xmlns="http://www.w3.org/2000/svg">
<path d="M8.25002 1.33331C10.4567 1.33331 12.25 3.10665 12.25 5.29998C12.25 8.27331 8.25002 12.6666 8.25002 12.6666C8.25002 12.6666 4.25002 8.27331 4.25002 5.29998C4.25002 3.10665 6.04335 1.33331 8.25002 1.33331ZM8.25002 3.99998C7.8964 3.99998 7.55726 4.14046 7.30721 4.3905C7.05716 4.64055 6.91669 4.97969 6.91669 5.33331C6.91669 5.68693 7.05716 6.02607 7.30721 6.27612C7.55726 6.52617 7.8964 6.66665 8.25002 6.66665C8.60364 6.66665 8.94278 6.52617 9.19283 6.27612C9.44288 6.02607 9.58335 5.68693 9.58335 5.33331C9.58335 4.97969 9.44288 4.64055 9.19283 4.3905C8.94278 4.14046 8.60364 3.99998 8.25002 3.99998ZM13.5834 12.6666C13.5834 14.14 11.1967 15.3333 8.25002 15.3333C5.30335 15.3333 2.91669 14.14 2.91669 12.6666C2.91669 11.8066 3.73002 11.04 4.99002 10.5533L5.41669 11.16C4.69669 11.46 4.25002 11.8733 4.25002 12.3333C4.25002 13.2533 6.04335 14 8.25002 14C10.4567 14 12.25 13.2533 12.25 12.3333C12.25 11.8733 11.8034 11.46 11.0834 11.16L11.51 10.5533C12.77 11.04 13.5834 11.8066 13.5834 12.6666Z" fill="#201F2B"/>
</svg>
